<svg 
    width="158" 
    height="158" 
    viewBox="0 0 158 158" 
    fill="none" 
    xmlns="http://www.w3.org/2000/svg"
>
    <path 
        d="M69.2033 3.05792C72.8189 1.56031 74.6266 0.811506 76.497 0.515262C78.1553 0.252613 79.8447 0.252613 81.503 0.515262C83.3734 0.811506 85.1811 1.56031 88.7967 3.05792L125.772 18.3735C129.387 19.8711 131.195 20.62 132.727 21.7331C134.086 22.7199 135.28 23.9144 136.267 25.2728C137.38 26.8048 138.129 28.6126 139.626 32.2282L154.942 69.2033C156.44 72.8189 157.188 74.6266 157.485 76.497C157.747 78.1553 157.747 79.8447 157.485 81.503C157.188 83.3734 156.44 85.1811 154.942 88.7967L139.626 125.772C138.129 129.387 137.38 131.195 136.267 132.727C135.28 134.086 134.086 135.28 132.727 136.267C131.195 137.38 129.387 138.129 125.772 139.626L88.7967 154.942C85.1811 156.44 83.3734 157.188 81.503 157.485C79.8447 157.747 78.1553 157.747 76.497 157.485C74.6266 157.188 72.8189 156.44 69.2033 154.942L32.2281 139.626C28.6126 138.129 26.8048 137.38 25.2728 136.267C23.9144 135.28 22.7199 134.086 21.7331 132.727C20.62 131.195 19.8711 129.387 18.3735 125.772L3.05792 88.7967C1.56031 85.1811 0.811506 83.3734 0.515262 81.503C0.252613 79.8447 0.252613 78.1553 0.515262 76.497C0.811506 74.6266 1.56031 72.8189 3.05792 69.2033L18.3735 32.2281C19.8711 28.6126 20.62 26.8048 21.7331 25.2728C22.7199 23.9144 23.9144 22.7199 25.2728 21.7331C26.8048 20.62 28.6126 19.8711 32.2282 18.3735L69.2033 3.05792Z" 
        fill="#FF3F8F"
    />
</svg>
